<?xml version="1.0" standalone="no"?>
<!DOCTYPE svg PUBLIC "-//W3C//DTD SVG 20010904//EN"
 "http://www.w3.org/TR/2001/REC-SVG-20010904/DTD/svg10.dtd">
<svg version="1.0" xmlns="http://www.w3.org/2000/svg"
 width="500.000000pt" height="500.000000pt" viewBox="0 0 500.000000 500.000000"
 preserveAspectRatio="xMidYMid meet">

<g transform="translate(0.000000,500.000000) scale(0.100000,-0.100000)"
fill="#000000" stroke="none">
<path d="M2135 4007 c-22 -13 -107 -72 -190 -132 -82 -60 -276 -199 -430 -309
-154 -109 -318 -227 -365 -261 -47 -34 -110 -78 -140 -98 -114 -74 -264 -183
-271 -197 -5 -8 -38 -76 -75 -150 -36 -74 -74 -146 -85 -161 -42 -60 -27 -80
201 -270 173 -144 296 -249 414 -352 56 -49 112 -93 125 -98 13 -5 45 -6 70
-2 25 4 51 7 56 8 6 0 8 9 7 20 -3 16 -2 17 12 6 14 -12 16 -12 10 2 -4 12 -1
15 13 13 10 -2 27 3 38 11 19 15 19 15 -5 10 l-25 -6 24 18 c14 11 31 17 38
14 9 -4 11 0 6 13 -5 14 -3 16 11 11 9 -4 15 -3 12 1 -6 10 60 55 80 55 7 0
12 3 9 5 -6 7 15 32 27 32 5 0 6 -4 3 -10 -3 -6 -1 -10 4 -10 6 0 11 5 11 10
0 6 5 10 11 10 5 0 7 -5 3 -12 -4 -6 -3 -8 4 -4 6 3 9 15 7 26 -4 23 10 36 21
19 5 -8 3 -9 -6 -4 -9 6 -11 4 -5 -4 5 -9 13 -7 31 10 13 12 24 28 24 35 0 7
5 16 12 20 7 4 8 3 4 -4 -5 -8 -1 -10 9 -6 9 4 14 13 11 21 -3 8 -2 12 3 8 5
-3 11 -2 14 2 2 5 2 2 0 -5 -1 -8 2 -12 8 -10 6 2 9 6 8 8 -4 7 46 60 56 60 4
0 18 11 31 25 22 24 45 28 70 13 6 -4 11 -1 11 7 0 8 -8 12 -21 9 -21 -3 -21
-3 -1 12 11 8 25 12 32 10 7 -3 10 1 7 9 -6 15 24 35 43 28 6 -2 15 1 19 8 4
8 3 9 -4 5 -7 -4 -12 -5 -12 -2 0 11 82 66 91 61 4 -3 10 4 14 15 4 12 18 23
36 27 16 3 31 14 35 25 4 14 9 16 18 9 16 -14 27 -4 19 17 -4 9 -2 13 4 9 6
-4 13 0 17 8 3 8 11 15 18 15 9 0 9 -3 -2 -11 -10 -7 -11 -9 -2 -7 8 2 13 8
13 13 0 6 7 18 16 27 12 14 20 15 35 7 16 -9 19 -8 13 2 -6 9 -3 10 10 5 14
-5 16 -4 6 7 -8 11 -7 17 7 29 33 29 41 30 29 4 -7 -14 -15 -20 -18 -14 -4 7
-9 7 -13 -1 -4 -6 -4 -11 1 -12 4 0 16 -2 25 -4 11 -2 15 2 11 11 -5 14 21 58
37 60 6 1 15 2 21 3 5 0 7 5 4 11 -3 5 6 12 20 16 13 3 22 10 19 15 -3 5 2 6
11 3 11 -5 18 0 21 13 6 23 64 70 64 52 0 -8 4 -9 13 0 8 6 17 8 20 4 4 -3 7
3 7 13 0 24 55 68 72 58 6 -4 8 -3 5 3 -4 6 1 17 10 24 15 12 16 12 11 -2 -11
-29 32 -9 45 20 15 33 29 43 39 28 6 -9 8 -8 8 3 0 13 1 13 10 0 8 -13 12 -12
27 4 10 11 11 15 3 9 -11 -8 -18 -8 -26 1 -9 10 -7 16 8 25 12 7 17 8 13 2 -3
-6 -1 -11 4 -11 6 0 11 9 11 21 0 19 1 19 16 5 14 -14 34 -14 34 0 0 3 -4 3
-9 -1 -15 -9 -25 15 -11 28 9 9 14 8 24 -5 12 -17 14 -17 31 2 10 11 15 20 11
20 -4 0 0 7 8 16 9 8 19 13 24 10 15 -9 31 9 22 24 -8 13 -10 12 -10 -2 0 -11
-5 -15 -15 -12 -8 4 -15 12 -15 19 0 15 27 28 41 20 5 -4 6 2 2 11 -4 12 -3
15 5 10 8 -4 10 -2 6 8 -4 10 -16 14 -35 11 -16 -2 -27 1 -24 6 4 5 1 9 -6 9
-7 0 -9 10 -7 25 4 19 2 23 -7 15 -10 -8 -16 -4 -23 17 l-10 28 -10 -25 c-6
-14 -12 -20 -13 -15 -1 6 -3 15 -4 20 -2 6 -4 19 -5 30 -1 20 -2 20 -9 1 -7
-18 -9 -17 -23 10 -65 124 -137 210 -240 287 -42 31 -192 154 -311 256 -43 36
-95 76 -115 88 -48 30 -105 29 -157 0z m167 -36 c24 -16 58 -43 76 -60 18 -17
61 -51 95 -76 34 -24 87 -67 117 -95 30 -28 78 -66 105 -84 64 -43 165 -149
165 -173 0 -42 -57 -95 -270 -253 -122 -91 -257 -190 -300 -220 -122 -87 -284
-201 -425 -303 -71 -51 -189 -133 -262 -181 -112 -76 -139 -89 -182 -94 -38
-3 -58 0 -78 13 -39 25 -227 183 -354 296 -58 52 -125 109 -150 128 -115 89
-114 118 4 196 122 81 282 192 518 360 115 83 242 173 282 201 40 28 127 91
194 140 244 179 273 199 315 222 53 29 91 25 150 -17z m761 -813 c-10 -11 -17
-23 -15 -26 2 -4 -1 -8 -7 -10 -15 -5 -1 31 16 41 7 5 10 13 7 19 -5 7 -2 8 5
4 9 -6 8 -13 -6 -28z m-210 -153 c-3 -9 -8 -14 -10 -11 -3 3 -2 9 2 15 9 16
15 13 8 -4z m-1887 -283 c324 -284 362 -312 422 -312 42 0 44 -1 30 -17 -10
-12 -19 -61 -27 -153 -21 -234 -20 -230 -46 -230 -24 0 -61 27 -165 120 -104
93 -279 242 -333 283 -65 51 -251 217 -256 229 -5 14 24 76 87 190 l54 98 62
-55 c33 -30 111 -99 172 -153z m824 -487 c-7 -9 -15 -13 -17 -11 -6 6 20 36
26 30 2 -2 -2 -10 -9 -19z"/>
<path d="M1140 3073 c-22 -16 -23 -19 -16 -127 l6 -111 -76 79 c-72 75 -77 78
-101 67 -26 -12 -26 -12 123 -164 l149 -152 23 21 23 20 -46 46 c-65 66 -61
72 38 65 45 -3 93 -10 107 -15 32 -11 103 14 79 29 -21 13 -114 31 -198 38
l-74 6 2 102 c1 55 -2 104 -7 107 -5 3 -19 -2 -32 -11z"/>
<path d="M690 2640 c0 -5 5 -10 10 -10 6 0 10 5 10 10 0 6 -4 10 -10 10 -5 0
-10 -4 -10 -10z"/>
<path d="M710 2580 c0 -5 5 -10 11 -10 5 0 7 5 4 10 -3 6 -8 10 -11 10 -2 0
-4 -4 -4 -10z"/>
<path d="M1338 2214 c-2 -93 -2 -171 0 -173 1 -2 5 -1 10 3 12 12 15 317 3
329 -7 7 -11 -42 -13 -159z"/>
<path d="M3080 3275 c7 -9 15 -13 17 -11 7 7 -7 26 -19 26 -6 0 -6 -6 2 -15z"/>
<path d="M3249 3132 c-30 -21 -106 -76 -169 -122 -63 -46 -138 -99 -166 -119
-96 -69 -400 -285 -519 -371 -66 -48 -147 -105 -180 -128 -33 -23 -100 -70
-150 -105 -49 -35 -119 -83 -155 -108 -168 -116 -168 -116 -226 -234 -60 -122
-88 -173 -104 -189 -16 -16 -12 -51 10 -79 11 -14 102 -93 202 -177 297 -247
408 -341 495 -417 l82 -73 66 0 c36 0 64 4 61 9 -5 7 29 20 67 25 4 1 11 7 16
14 5 8 12 13 17 12 5 -1 10 4 13 11 2 8 -1 9 -10 3 -11 -6 -12 -5 -2 8 7 8 11
17 8 20 -3 2 2 5 10 5 11 0 12 -4 4 -14 -23 -26 7 -12 44 22 21 19 35 39 32
45 -3 6 1 7 10 3 13 -5 14 -7 3 -14 -7 -5 -8 -9 -2 -9 18 0 24 13 12 27 -8 11
-7 12 5 7 10 -3 20 2 27 16 7 14 17 19 27 16 13 -6 14 -4 3 9 -11 13 -11 16 1
13 8 -2 13 2 12 9 -2 8 4 10 14 6 10 -4 14 -2 9 5 -3 6 -1 14 5 18 7 4 9 3 6
-3 -9 -14 15 -34 28 -25 17 12 14 41 -4 35 -13 -4 -14 -3 -2 5 9 7 21 7 32 2
13 -8 16 -5 13 16 -2 21 0 23 12 13 7 -6 11 -16 7 -22 -4 -6 -1 -7 6 -3 7 5
10 11 7 14 -3 3 -1 11 5 19 6 7 8 13 4 13 -4 0 -2 6 4 14 7 9 23 13 39 10 26
-5 26 -5 7 10 -20 15 -20 15 3 9 15 -4 22 -1 22 10 0 9 7 14 18 12 27 -4 54
14 48 32 -5 13 -4 14 9 3 13 -11 14 -10 10 3 -4 8 -1 18 4 22 6 3 8 11 5 17
-4 6 -2 8 4 5 5 -4 8 -17 6 -30 -2 -12 -1 -16 2 -7 9 19 47 54 65 58 23 6 39
24 32 36 -4 7 -1 7 8 -1 13 -11 15 -9 15 10 -1 13 5 22 14 22 8 1 14 7 12 14
-1 7 2 10 8 6 13 -8 52 19 42 30 -4 5 -1 5 6 1 8 -5 19 -1 28 10 9 11 13 14
10 8 -3 -6 1 -11 9 -11 10 0 11 5 4 18 -6 12 -5 20 3 25 7 4 8 3 4 -4 -11 -18
3 -14 37 10 17 12 28 17 24 11 -5 -7 0 -9 13 -6 11 3 20 10 20 15 0 5 -6 6
-12 2 -7 -4 0 5 15 19 16 15 25 32 21 39 -4 7 -3 8 4 4 6 -4 8 -14 5 -23 -4
-9 7 -2 24 15 29 31 62 45 47 20 -4 -7 -3 -8 5 -4 6 4 9 11 6 16 -6 9 44 44
53 36 3 -3 0 -6 -7 -6 -7 0 -9 -5 -5 -12 4 -6 3 -8 -4 -4 -6 3 -13 2 -16 -3
-4 -5 1 -8 10 -7 23 3 35 28 22 44 -9 10 -8 12 3 10 8 -2 19 -9 24 -16 9 -11
13 -11 24 2 8 9 10 16 6 16 -4 0 -2 7 5 15 11 13 10 14 -2 10 -9 -4 -15 0 -15
9 0 12 5 13 19 5 11 -6 17 -17 14 -25 -9 -24 0 -15 27 26 16 22 23 42 17 45
-6 3 -10 12 -10 18 0 7 7 4 14 -5 16 -21 28 -24 20 -4 -4 9 4 12 29 11 34 -3
42 12 23 43 -4 7 -4 12 1 11 20 -3 34 2 28 11 -4 6 1 7 11 3 13 -5 15 -3 9 8
-7 10 -1 9 18 -4 21 -14 25 -14 21 -2 -4 8 -11 15 -17 15 -6 0 -7 3 -4 6 4 4
14 1 24 -7 15 -12 16 -12 10 5 -7 17 -6 17 10 5 9 -8 14 -9 10 -3 -7 12 21 29
31 19 3 -3 0 -5 -7 -5 -7 0 -9 -5 -5 -11 4 -6 9 -7 13 -2 3 5 21 19 39 32 18
12 30 26 27 31 -3 5 5 10 17 12 18 2 22 9 20 28 -2 23 -2 23 11 7 12 -18 14
-17 31 2 16 17 16 21 4 21 -9 0 -22 7 -29 17 -13 15 -12 15 9 5 55 -29 67 -34
60 -27 -4 4 4 17 17 30 14 12 22 25 18 28 -3 4 1 7 10 7 16 0 16 2 0 18 -10
11 -22 17 -28 14 -6 -3 -6 -1 -2 4 8 9 12 10 40 13 8 1 7 4 -3 11 -13 9 -13
10 1 10 8 0 21 -6 29 -12 12 -11 12 -10 2 3 -6 9 -8 20 -4 24 4 5 1 5 -5 1 -8
-4 -13 -1 -13 9 0 9 5 13 10 10 6 -3 10 -3 10 0 0 11 -28 35 -42 36 -7 0 -4 4
7 9 18 7 16 9 -13 16 -22 4 -31 11 -28 20 3 8 1 14 -4 14 -6 0 -10 -5 -10 -11
0 -5 -5 -7 -11 -4 -6 4 -8 9 -6 12 3 2 -6 16 -20 31 -14 15 -42 63 -63 107
-36 79 -76 127 -161 192 -48 37 -115 91 -224 183 -89 76 -189 154 -248 198
-23 16 -45 22 -83 22 -43 0 -59 -6 -105 -38z m154 6 c12 -6 47 -32 77 -58 30
-25 67 -54 81 -62 14 -9 66 -52 115 -95 49 -43 105 -89 124 -103 72 -50 210
-173 215 -191 15 -45 -44 -102 -300 -294 -58 -44 -139 -103 -178 -130 -40 -28
-126 -90 -192 -139 -66 -49 -139 -103 -163 -120 -24 -17 -74 -54 -111 -82 -38
-29 -108 -79 -157 -113 -49 -33 -129 -89 -177 -123 -230 -164 -273 -181 -355
-139 -70 37 -256 186 -530 425 -132 115 -137 105 110 275 269 186 526 367 743
525 72 52 159 114 195 139 36 24 106 74 155 110 178 130 208 151 243 169 42
21 74 23 105 6z m800 -881 c12 11 7 -11 -8 -37 -8 -14 -15 -20 -15 -15 0 6 -5
3 -10 -5 -7 -11 -10 -11 -10 -2 0 7 -4 11 -9 8 -5 -3 -15 2 -22 12 -12 15 -12
16 2 4 13 -10 18 -10 28 1 6 8 10 16 8 18 -1 2 4 -2 11 -10 15 -19 16 -7 0 22
-10 19 -9 20 4 10 8 -7 18 -10 21 -6z m-73 -91 c0 -3 -4 -8 -10 -11 -5 -3 -10
-1 -10 4 0 6 5 11 10 11 6 0 10 -2 10 -4z m-80 -36 c0 -5 -2 -10 -4 -10 -3 0
-8 5 -11 10 -3 6 -1 10 4 10 6 0 11 -4 11 -10z m-1 -23 c-2 -1 -13 -10 -25
-20 -20 -17 -22 -17 -35 0 -13 17 -13 17 5 3 18 -13 19 -13 14 0 -4 12 1 16
20 18 14 1 24 1 21 -1z m-84 -27 c-3 -5 -12 -10 -18 -10 -7 0 -6 4 3 10 19 12
23 12 15 0z m-141 -88 c3 -5 -1 -9 -9 -9 -8 0 -12 4 -9 9 3 4 7 8 9 8 2 0 6
-4 9 -8z m-2064 -15 c0 -23 200 -200 451 -399 147 -117 165 -128 217 -128 42
0 44 -1 29 -17 -10 -13 -19 -58 -27 -150 -17 -196 -23 -227 -41 -231 -16 -3
-98 61 -209 162 -31 28 -145 125 -255 216 -223 185 -325 277 -325 295 0 17
104 214 133 253 12 16 27 16 27 -1z m1930 -131 c0 -3 -4 -8 -10 -11 -5 -3 -10
-1 -10 4 0 6 5 11 10 11 6 0 10 -2 10 -4z m-493 -322 c-3 -3 -12 -4 -19 -1 -8
3 -5 6 6 6 11 1 17 -2 13 -5z m-127 -98 c0 -2 -7 -6 -15 -10 -8 -3 -15 -1 -15
4 0 6 7 10 15 10 8 0 15 -2 15 -4z m-140 -90 c0 -3 -4 -8 -10 -11 -5 -3 -10
-1 -10 4 0 6 5 11 10 11 6 0 10 -2 10 -4z m-361 -270 c-2 -2 -14 -9 -26 -15
-18 -9 -22 -9 -18 2 3 7 15 13 26 14 12 1 20 1 18 -1z"/>
<path d="M2122 2072 c-23 -18 -23 -13 -7 -152 l4 -35 -27 31 c-15 17 -52 52
-83 77 -51 41 -58 44 -72 30 -14 -14 -6 -25 86 -113 56 -53 123 -115 149 -139
l47 -43 26 20 26 20 -30 18 c-17 10 -40 31 -52 47 l-22 30 74 -7 c41 -3 88
-10 104 -15 33 -9 75 5 75 24 0 12 -81 29 -197 41 l-63 6 0 89 c0 49 -3 89 -7
89 -5 0 -18 -8 -31 -18z"/>
<path d="M1690 1750 c0 -5 5 -10 10 -10 6 0 10 5 10 10 0 6 -4 10 -10 10 -5 0
-10 -4 -10 -10z"/>
<path d="M2379 1343 c0 -38 -3 -110 -5 -160 -3 -60 -1 -93 6 -93 5 0 10 1 10
3 0 1 3 73 7 160 4 116 3 157 -5 157 -8 0 -12 -24 -13 -67z"/>
<path d="M2764 2938 c-4 -6 -2 -8 4 -4 5 3 12 1 14 -5 2 -7 8 -7 15 3 10 11 8
14 -7 15 -11 1 -23 -3 -26 -9z"/>
<path d="M2650 2860 c-8 -5 -12 -12 -9 -15 4 -3 12 1 19 10 14 17 11 19 -10 5z"/>
<path d="M2406 2676 c6 -15 4 -17 -6 -11 -9 6 -11 4 -5 -4 5 -9 10 -10 18 -2
8 8 7 14 -2 24 -10 10 -11 8 -5 -7z"/>
<path d="M2253 2553 c0 -9 4 -10 14 -2 7 6 13 12 13 14 0 1 -6 2 -13 2 -8 0
-14 -6 -14 -14z"/>
<path d="M2168 2504 c-38 -20 -36 -28 2 -9 17 9 30 18 30 20 0 7 -1 6 -32 -11z"/>
<path d="M2093 2453 c4 -3 1 -13 -6 -22 -11 -14 -10 -14 5 -2 16 12 16 31 1
31 -4 0 -3 -3 0 -7z"/>
<path d="M1976 2367 c3 -10 9 -15 12 -12 3 3 0 11 -7 18 -10 9 -11 8 -5 -6z"/>
<path d="M4230 2266 c7 -7 13 -7 20 0 6 6 3 10 -10 10 -13 0 -16 -4 -10 -10z"/>
<path d="M1633 2130 c-13 -5 -23 -11 -23 -14 0 -7 40 6 46 15 6 10 6 10 -23
-1z"/>
<path d="M3870 2005 c-16 -9 -19 -14 -9 -15 8 0 21 6 28 13 12 10 13 8 7 -8
-6 -16 -5 -18 5 -7 21 20 -2 33 -31 17z"/>
<path d="M3781 1922 c-20 -18 -22 -25 -12 -35 10 -9 11 -8 6 6 -4 9 -2 18 4
18 6 1 16 2 21 3 10 1 14 11 8 24 -2 4 -14 -3 -27 -16z"/>
<path d="M3305 1591 c-3 -5 -2 -12 3 -15 5 -3 9 1 9 9 0 17 -3 19 -12 6z"/>
<path d="M2806 1228 c3 -5 10 -6 15 -3 13 9 11 12 -6 12 -8 0 -12 -4 -9 -9z"/>
</g>
</svg>
